<svg width="28" height="26" viewBox="0 0 28 26" fill="none" xmlns="http://www.w3.org/2000/svg">
<path d="M4.1731 6.91284V22.4689C4.1731 23.7442 4.1731 24.3819 4.56929 24.7781C4.96549 25.1743 5.60316 25.1743 6.87849 25.1743H21.1216C22.397 25.1743 23.0346 25.1743 23.4308 24.7781C23.827 24.3819 23.827 23.7442 23.827 22.4689V6.91284" stroke="#475059" stroke-width="1.3527"/>
<path d="M26.8507 8.9419L14.7224 1.28191C14.2812 1.00323 13.719 1.00323 13.2777 1.28191L1.14941 8.9419" stroke="#475059" stroke-width="1.3527" stroke-linecap="round"/>
<path d="M17.7797 25.1743V19.7635C17.7797 18.2693 16.5684 17.0581 15.0743 17.0581H12.9259C11.4317 17.0581 10.2205 18.2693 10.2205 19.7635V25.1743" stroke="#475059" stroke-width="1.3527" stroke-linejoin="round"/>
</svg>
