<svg width="150" height="150" viewBox="0 0 150 150" fill="none" xmlns="http://www.w3.org/2000/svg">
<rect width="150" height="150" fill="#F2F2F7"/>
<path d="M90.4583 77.9583C94.5433 74.7444 97.5249 70.3372 98.9885 65.3498C100.452 60.3623 100.325 55.0428 98.6241 50.1311C96.9235 45.2195 93.7344 40.96 89.5003 37.9452C85.2662 34.9305 80.1977 33.3104 75 33.3104C69.8023 33.3104 64.7338 34.9305 60.4997 37.9452C56.2656 40.96 53.0764 45.2195 51.3759 50.1311C49.6753 55.0428 49.548 60.3623 51.0115 65.3498C52.475 70.3372 55.4567 74.7444 59.5417 77.9583C52.542 80.7627 46.4345 85.4139 41.8704 91.4163C37.3062 97.4187 34.4565 104.547 33.625 112.042C33.5648 112.589 33.613 113.143 33.7668 113.671C33.9205 114.2 34.1769 114.693 34.5213 115.122C35.2167 115.99 36.2283 116.545 37.3333 116.667C38.4384 116.788 39.5465 116.466 40.4138 115.77C41.2812 115.075 41.8368 114.063 41.9583 112.958C42.8733 104.813 46.757 97.2909 52.8676 91.8283C58.9781 86.3657 66.8871 83.3459 75.0833 83.3459C83.2796 83.3459 91.1885 86.3657 97.2991 91.8283C103.41 97.2909 107.293 104.813 108.208 112.958C108.322 113.982 108.81 114.928 109.58 115.613C110.349 116.297 111.345 116.673 112.375 116.667H112.833C113.926 116.541 114.924 115.989 115.611 115.13C116.297 114.272 116.617 113.177 116.5 112.083C115.665 104.568 112.799 97.4208 108.212 91.4092C103.624 85.3976 97.4871 80.7478 90.4583 77.9583V77.9583ZM75 75C71.7036 75 68.4813 74.0225 65.7405 72.1912C62.9997 70.3598 60.8635 67.7568 59.602 64.7114C58.3405 61.666 58.0105 58.3148 58.6536 55.0818C59.2966 51.8488 60.884 48.8791 63.2149 46.5482C65.5457 44.2173 68.5155 42.63 71.7485 41.9869C74.9815 41.3438 78.3326 41.6739 81.378 42.9353C84.4235 44.1968 87.0265 46.333 88.8578 49.0738C90.6892 51.8146 91.6667 55.037 91.6667 58.3333C91.6667 62.7536 89.9107 66.9928 86.7851 70.1184C83.6595 73.244 79.4203 75 75 75Z" fill="#AEAEB2"/>
</svg>
