<svg width="20" height="20" viewBox="0 0 20 20" fill="none" xmlns="http://www.w3.org/2000/svg">
<path d="M19.41 6.64C19.41 6.64 19.41 6.64 19.41 6.59C18.7054 4.66623 17.4269 3.00529 15.7475 1.83187C14.0681 0.658447 12.0688 0.0291748 10.02 0.0291748C7.97126 0.0291748 5.97195 0.658447 4.29252 1.83187C2.6131 3.00529 1.33461 4.66623 0.630012 6.59C0.630012 6.59 0.630012 6.59 0.630012 6.64C-0.156863 8.8109 -0.156863 11.1891 0.630012 13.36C0.630012 13.36 0.630012 13.36 0.630012 13.41C1.33461 15.3338 2.6131 16.9947 4.29252 18.1681C5.97195 19.3416 7.97126 19.9708 10.02 19.9708C12.0688 19.9708 14.0681 19.3416 15.7475 18.1681C17.4269 16.9947 18.7054 15.3338 19.41 13.41C19.41 13.41 19.41 13.41 19.41 13.36C20.1969 11.1891 20.1969 8.8109 19.41 6.64ZM2.26001 12C1.91324 10.6892 1.91324 9.31079 2.26001 8H4.12001C3.96004 9.32854 3.96004 10.6715 4.12001 12H2.26001ZM3.08001 14H4.48001C4.71473 14.8918 5.05022 15.7541 5.48001 16.57C4.49931 15.9019 3.67951 15.0241 3.08001 14ZM4.48001 6H3.08001C3.67088 4.97909 4.4802 4.10147 5.45001 3.43C5.03057 4.24725 4.70515 5.10942 4.48001 6ZM9.00001 17.7C7.77178 16.7987 6.90916 15.4852 6.57001 14H9.00001V17.7ZM9.00001 12H6.14001C5.9534 10.6732 5.9534 9.32681 6.14001 8H9.00001V12ZM9.00001 6H6.57001C6.90916 4.51477 7.77178 3.20132 9.00001 2.3V6ZM16.92 6H15.52C15.2853 5.10816 14.9498 4.24594 14.52 3.43C15.5007 4.09807 16.3205 4.97594 16.92 6ZM11 2.3C12.2282 3.20132 13.0909 4.51477 13.43 6H11V2.3ZM11 17.7V14H13.43C13.0909 15.4852 12.2282 16.7987 11 17.7ZM13.86 12H11V8H13.86C14.0466 9.32681 14.0466 10.6732 13.86 12ZM14.55 16.57C14.9798 15.7541 15.3153 14.8918 15.55 14H16.95C16.3505 15.0241 15.5307 15.9019 14.55 16.57ZM17.74 12H15.88C15.9613 11.3365 16.0014 10.6685 16 10C16.0011 9.33151 15.961 8.66357 15.88 8H17.74C18.0868 9.31079 18.0868 10.6892 17.74 12Z" fill="#2541B2"/>
</svg>
