<svg width="18" height="21" viewBox="0 0 18 21" fill="none" xmlns="http://www.w3.org/2000/svg">
<path fill-rule="evenodd" clip-rule="evenodd" d="M17 7.00001L11 1.74001C10.45 1.24805 9.7379 0.976074 8.99997 0.976074C8.26204 0.976074 7.55 1.24805 6.99997 1.74001L0.999973 7.00001C0.682341 7.28408 0.428873 7.63256 0.256445 8.02225C0.0840165 8.41194 -0.00341463 8.83389 -2.72762e-05 9.26001V18C-2.72762e-05 18.7957 0.316043 19.5587 0.878652 20.1213C1.44126 20.6839 2.20432 21 2.99997 21H15C15.7956 21 16.5587 20.6839 17.1213 20.1213C17.6839 19.5587 18 18.7957 18 18V9.25001C18.0019 8.82557 17.9138 8.40555 17.7414 8.01769C17.5691 7.62983 17.3163 7.28296 17 7.00001ZM13 14V19H11H6.99997H4.99997V14C4.99997 13.2044 5.31604 12.4413 5.87865 11.8787C6.44126 11.3161 7.20432 11 7.99997 11H9.99997C10.7956 11 11.5587 11.3161 12.1213 11.8787C12.6839 12.4413 13 13.2044 13 14Z" fill="#2541B2"/>
</svg>
