<svg width="22" height="16" viewBox="0 0 22 16" fill="none" xmlns="http://www.w3.org/2000/svg">
<path d="M6 8.5C6.59334 8.5 7.17336 8.32405 7.66671 7.99441C8.16006 7.66476 8.54458 7.19623 8.77164 6.64805C8.9987 6.09987 9.05811 5.49667 8.94236 4.91473C8.8266 4.33279 8.54088 3.79824 8.12132 3.37868C7.70176 2.95912 7.16721 2.6734 6.58527 2.55764C6.00333 2.44189 5.40013 2.5013 4.85195 2.72836C4.30377 2.95542 3.83524 3.33994 3.50559 3.83329C3.17595 4.32664 3 4.90666 3 5.5C3 6.29565 3.31607 7.05871 3.87868 7.62132C4.44129 8.18393 5.20435 8.5 6 8.5ZM6 4.5C6.19778 4.5 6.39112 4.55865 6.55557 4.66853C6.72002 4.77841 6.84819 4.93459 6.92388 5.11732C6.99957 5.30004 7.01937 5.50111 6.98079 5.69509C6.9422 5.88907 6.84696 6.06725 6.70711 6.20711C6.56725 6.34696 6.38907 6.4422 6.19509 6.48079C6.00111 6.51937 5.80004 6.49957 5.61732 6.42388C5.43459 6.34819 5.27841 6.22002 5.16853 6.05557C5.05865 5.89112 5 5.69778 5 5.5C5 5.23478 5.10536 4.98043 5.29289 4.79289C5.48043 4.60536 5.73478 4.5 6 4.5ZM19 2.5H11C10.7348 2.5 10.4804 2.60536 10.2929 2.79289C10.1054 2.98043 10 3.23478 10 3.5V9.5H2V1.5C2 1.23478 1.89464 0.98043 1.70711 0.792893C1.51957 0.605357 1.26522 0.5 1 0.5C0.734784 0.5 0.48043 0.605357 0.292893 0.792893C0.105357 0.98043 0 1.23478 0 1.5V14.5C0 14.7652 0.105357 15.0196 0.292893 15.2071C0.48043 15.3946 0.734784 15.5 1 15.5C1.26522 15.5 1.51957 15.3946 1.70711 15.2071C1.89464 15.0196 2 14.7652 2 14.5V11.5H20V14.5C20 14.7652 20.1054 15.0196 20.2929 15.2071C20.4804 15.3946 20.7348 15.5 21 15.5C21.2652 15.5 21.5196 15.3946 21.7071 15.2071C21.8946 15.0196 22 14.7652 22 14.5V5.5C22 4.70435 21.6839 3.94129 21.1213 3.37868C20.5587 2.81607 19.7956 2.5 19 2.5ZM20 9.5H12V4.5H19C19.2652 4.5 19.5196 4.60536 19.7071 4.79289C19.8946 4.98043 20 5.23478 20 5.5V9.5Z" fill="#2541B2"/>
</svg>
