<svg width="315" height="279" viewBox="0 0 315 279" fill="none" xmlns="http://www.w3.org/2000/svg">
<path d="M299 273.156H16V278.573H299V273.156Z" fill="#FDC500"/>
<path d="M42.7336 236.035H32.477V262.623H26.2868V236.035H16.0302V230.573H42.7336V236.035ZM48.9753 262.623V230.573H63.1629C64.6389 230.573 65.9945 230.874 67.2295 231.476C68.4946 232.078 69.579 232.891 70.4827 233.914C71.4165 234.937 72.1244 236.081 72.6063 237.345C73.1184 238.608 73.3744 239.902 73.3744 241.227C73.3744 242.581 73.1335 243.89 72.6515 245.154C72.1997 246.388 71.537 247.471 70.6634 248.404C69.7899 249.337 68.7657 250.059 67.5909 250.571L74.9107 262.623H68.0428L61.446 251.88H55.2106V262.623H48.9753ZM55.2106 246.418H63.0274C63.8106 246.418 64.5034 246.192 65.1058 245.741C65.7083 245.259 66.1903 244.627 66.5517 243.845C66.9132 243.062 67.0939 242.19 67.0939 241.227C67.0939 240.203 66.8831 239.316 66.4614 238.563C66.0396 237.781 65.4974 237.164 64.8347 236.713C64.2022 236.261 63.5094 236.035 62.7563 236.035H55.2106V246.418ZM90.0038 230.573H96.3295L108.122 262.623H101.706L98.7243 254.633H87.5187L84.5818 262.623H78.1657L90.0038 230.573ZM97.5947 250.255L93.1667 237.029L88.5579 250.255H97.5947ZM114.595 230.573L123.271 255.22L131.855 230.573H138.407L126.253 262.623H120.243L108.044 230.573H114.595ZM166.366 257.161V262.623H144.09V230.573H165.959V236.035H150.326V243.754H163.836V248.81H150.326V257.161H166.366ZM173.486 262.623V230.573H179.721V257.161H196.078V262.623H173.486ZM210.853 230.573H217.179L228.971 262.623H222.555L219.573 254.633H208.368L205.431 262.623H199.015L210.853 230.573ZM218.444 250.255L214.016 237.029L209.407 250.255H218.444ZM240.984 242.039V262.623H234.749V230.573H239.719L256.301 251.699V230.619H262.537V262.623H257.341L240.984 242.039ZM271.47 262.623V230.573H283.127C286.621 230.573 289.543 231.296 291.893 232.74C294.242 234.155 296.004 236.081 297.179 238.518C298.354 240.926 298.941 243.604 298.941 246.553C298.941 249.803 298.294 252.632 296.998 255.039C295.703 257.447 293.866 259.313 291.486 260.637C289.136 261.961 286.35 262.623 283.127 262.623H271.47ZM292.661 246.553C292.661 244.477 292.284 242.656 291.531 241.091C290.778 239.496 289.694 238.262 288.278 237.39C286.862 236.487 285.145 236.035 283.127 236.035H277.705V257.161H283.127C285.175 257.161 286.907 256.71 288.323 255.807C289.739 254.874 290.808 253.61 291.531 252.015C292.284 250.39 292.661 248.569 292.661 246.553Z" fill="#2541B2"/>
<path d="M68 116.288C68 83.8995 85.9422 55.7066 112.418 41.1304C116.211 39.0421 134.819 4 134.819 4C134.819 4 144.492 9.85878 148.867 10.8616C150.311 11.1927 154.56 18.9812 155.978 19.353C161.538 20.812 164.886 20.6397 164.886 20.6397C164.886 20.6397 174.845 33.0814 179.641 34.6127C197.01 40.1589 211.8 49.5845 221.281 64.4893C221.386 64.6544 237.741 63.6365 237.741 63.6365C237.741 63.6365 248.602 72.7059 248.992 85.1867C249.333 96.1249 239.208 110.188 239.208 116.288C239.208 163.625 200.881 202 153.604 202C106.326 202 68 163.625 68 116.288Z" stroke="#2541B2" stroke-width="7" stroke-miterlimit="10" stroke-linejoin="round"/>
<path d="M188.902 194.321C188.902 194.321 193.91 182.235 194.046 172.004C194.182 161.774 189.441 153.398 189.441 153.398C189.441 153.398 173.284 162.679 162.999 163.288C152.713 163.896 148.3 155.832 148.3 155.832C148.3 155.832 168.036 151.363 172.118 145.872C176.2 140.382 170.61 136.627 163.748 133.87C156.885 131.112 149.327 143.069 138.583 139.478C127.84 135.888 121.653 119.507 121.653 119.507L138.793 102.376C138.793 102.376 135.437 88.0801 145.69 77.0667C155.942 66.053 162.866 62.4593 180.3 59.6992C197.732 56.9389 215.422 66.0254 215.422 66.0254L237.741 63.6361C237.741 63.6361 248.687 73.2145 248.991 85.1864C249.296 97.1587 239.207 116.288 239.207 116.288" stroke="#2541B2" stroke-width="7" stroke-miterlimit="10" stroke-linejoin="round"/>
</svg>
