<svg width="16" height="20" viewBox="0 0 16 20" fill="none" xmlns="http://www.w3.org/2000/svg">
<path fill-rule="evenodd" clip-rule="evenodd" d="M8 17.65C5.87 15.65 2 11.34 2 8C2 6.4087 2.63214 4.88258 3.75736 3.75736C4.88258 2.63214 6.4087 2 8 2C9.5913 2 11.1174 2.63214 12.2426 3.75736C13.3679 4.88258 14 6.4087 14 8C14 11.34 10.13 15.66 8 17.65ZM5.77772 4.67412C6.43552 4.2346 7.20887 4 8 4C9.06087 4 10.0783 4.42143 10.8284 5.17157C11.5786 5.92172 12 6.93913 12 8C12 8.79113 11.7654 9.56448 11.3259 10.2223C10.8864 10.8801 10.2616 11.3928 9.53073 11.6955C8.79983 11.9983 7.99556 12.0775 7.21964 11.9231C6.44371 11.7688 5.73098 11.3878 5.17157 10.8284C4.61216 10.269 4.2312 9.55628 4.07686 8.78036C3.92252 8.00444 4.00173 7.20017 4.30448 6.46927C4.60723 5.73836 5.11992 5.11365 5.77772 4.67412Z" fill="#2541B2"/>
<path fill-rule="evenodd" clip-rule="evenodd" d="M2.34315 2.34315C3.84344 0.842855 5.87827 0 8 0C10.1217 0 12.1566 0.842855 13.6569 2.34315C15.1571 3.84344 16 5.87827 16 8C16 13.4 9 19.5 8.65 19.76C8.46887 19.9149 8.23835 20.0001 8 20.0001C7.76165 20.0001 7.53113 19.9149 7.35 19.76L7.34834 19.7586C7.025 19.4784 0 13.3904 0 8C0 5.87827 0.842855 3.84344 2.34315 2.34315ZM2 8C2 11.34 5.87 15.65 8 17.65C10.13 15.66 14 11.34 14 8C14 6.4087 13.3679 4.88258 12.2426 3.75736C11.1174 2.63214 9.5913 2 8 2C6.4087 2 4.88258 2.63214 3.75736 3.75736C2.63214 4.88258 2 6.4087 2 8Z" fill="#2541B2"/>
</svg>
