<svg width="21" height="12" viewBox="0 0 21 12" fill="none" xmlns="http://www.w3.org/2000/svg">
<path d="M5.29 8.29L5 8.59V1C5 0.734784 4.89465 0.48043 4.70711 0.292893C4.51957 0.105357 4.26522 0 4 0C3.73479 0 3.48043 0.105357 3.2929 0.292893C3.10536 0.48043 3 0.734784 3 1V8.59L2.71 8.29C2.5217 8.1017 2.2663 7.99591 2 7.99591C1.7337 7.99591 1.47831 8.1017 1.29 8.29C1.1017 8.4783 0.995911 8.7337 0.995911 9C0.995911 9.2663 1.1017 9.5217 1.29 9.71L3.29 11.71C3.38511 11.801 3.49725 11.8724 3.62 11.92C3.7397 11.9729 3.86913 12.0002 4 12.0002C4.13087 12.0002 4.2603 11.9729 4.38 11.92C4.50275 11.8724 4.6149 11.801 4.71 11.71L6.71 9.71C6.80324 9.61676 6.8772 9.50607 6.92766 9.38425C6.97812 9.26243 7.00409 9.13186 7.00409 9C7.00409 8.86814 6.97812 8.73757 6.92766 8.61575C6.8772 8.49393 6.80324 8.38324 6.71 8.29C6.61676 8.19676 6.50607 8.1228 6.38425 8.07234C6.26243 8.02188 6.13186 7.99591 6 7.99591C5.86814 7.99591 5.73758 8.02188 5.61575 8.07234C5.49393 8.1228 5.38324 8.19676 5.29 8.29ZM10 2H20C20.2652 2 20.5196 1.89464 20.7071 1.70711C20.8946 1.51957 21 1.26522 21 1C21 0.734784 20.8946 0.48043 20.7071 0.292893C20.5196 0.105357 20.2652 0 20 0H10C9.73479 0 9.48043 0.105357 9.2929 0.292893C9.10536 0.48043 9 0.734784 9 1C9 1.26522 9.10536 1.51957 9.2929 1.70711C9.48043 1.89464 9.73479 2 10 2ZM20 5H10C9.73479 5 9.48043 5.10536 9.2929 5.29289C9.10536 5.48043 9 5.73478 9 6C9 6.26522 9.10536 6.51957 9.2929 6.70711C9.48043 6.89464 9.73479 7 10 7H20C20.2652 7 20.5196 6.89464 20.7071 6.70711C20.8946 6.51957 21 6.26522 21 6C21 5.73478 20.8946 5.48043 20.7071 5.29289C20.5196 5.10536 20.2652 5 20 5ZM20 10H10C9.73479 10 9.48043 10.1054 9.2929 10.2929C9.10536 10.4804 9 10.7348 9 11C9 11.2652 9.10536 11.5196 9.2929 11.7071C9.48043 11.8946 9.73479 12 10 12H20C20.2652 12 20.5196 11.8946 20.7071 11.7071C20.8946 11.5196 21 11.2652 21 11C21 10.7348 20.8946 10.4804 20.7071 10.2929C20.5196 10.1054 20.2652 10 20 10Z" fill="#2541B2"/>
</svg>
