<svg width="15" height="13" viewBox="0 0 15 13" fill="none" xmlns="http://www.w3.org/2000/svg">
<path d="M12.4584 2.95833H11.7501V2.25C11.7501 1.68641 11.5262 1.14591 11.1277 0.747398C10.7292 0.348883 10.1887 0.125 9.62508 0.125H2.54175C1.97816 0.125 1.43766 0.348883 1.03915 0.747398C0.640631 1.14591 0.416748 1.68641 0.416748 2.25V10.75C0.416748 11.3136 0.640631 11.8541 1.03915 12.2526C1.43766 12.6511 1.97816 12.875 2.54175 12.875H12.4584C13.022 12.875 13.5625 12.6511 13.961 12.2526C14.3595 11.8541 14.5834 11.3136 14.5834 10.75V5.08333C14.5834 4.51975 14.3595 3.97925 13.961 3.58073C13.5625 3.18222 13.022 2.95833 12.4584 2.95833ZM2.54175 1.54167H9.62508C9.81294 1.54167 9.99311 1.61629 10.1259 1.74913C10.2588 1.88197 10.3334 2.06214 10.3334 2.25V2.95833H2.54175C2.35389 2.95833 2.17372 2.88371 2.04088 2.75087C1.90804 2.61803 1.83341 2.43786 1.83341 2.25C1.83341 2.06214 1.90804 1.88197 2.04088 1.74913C2.17372 1.61629 2.35389 1.54167 2.54175 1.54167ZM13.1667 8.625H12.4584C12.2706 8.625 12.0904 8.55037 11.9575 8.41753C11.8247 8.2847 11.7501 8.10453 11.7501 7.91667C11.7501 7.7288 11.8247 7.54864 11.9575 7.4158C12.0904 7.28296 12.2706 7.20833 12.4584 7.20833H13.1667V8.625ZM13.1667 5.79167H12.4584C11.8948 5.79167 11.3543 6.01555 10.9558 6.41406C10.5573 6.81258 10.3334 7.35308 10.3334 7.91667C10.3334 8.48025 10.5573 9.02075 10.9558 9.41927C11.3543 9.81778 11.8948 10.0417 12.4584 10.0417H13.1667V10.75C13.1667 10.9379 13.0921 11.118 12.9593 11.2509C12.8264 11.3837 12.6463 11.4583 12.4584 11.4583H2.54175C2.35389 11.4583 2.17372 11.3837 2.04088 11.2509C1.90804 11.118 1.83341 10.9379 1.83341 10.75V4.25458C2.06098 4.33464 2.30051 4.37536 2.54175 4.375H12.4584C12.6463 4.375 12.8264 4.44963 12.9593 4.58247C13.0921 4.7153 13.1667 4.89547 13.1667 5.08333V5.79167Z" fill="#2C2C2E"/>
</svg>
