<svg width="15" height="15" viewBox="0 0 15 15" fill="none" xmlns="http://www.w3.org/2000/svg">
<path d="M7.50008 8.91666C7.64018 8.91666 7.77713 8.87511 7.89361 8.79728C8.0101 8.71945 8.10088 8.60882 8.1545 8.47939C8.20811 8.34996 8.22214 8.20754 8.1948 8.07013C8.16747 7.93273 8.10001 7.80652 8.00095 7.70746C7.90189 7.60839 7.77567 7.54093 7.63827 7.5136C7.50087 7.48627 7.35844 7.5003 7.22901 7.55391C7.09958 7.60752 6.98896 7.69831 6.91112 7.81479C6.83329 7.93128 6.79175 8.06823 6.79175 8.20832C6.79175 8.39618 6.86638 8.57635 6.99921 8.70919C7.13205 8.84203 7.31222 8.91666 7.50008 8.91666ZM11.0417 8.91666C11.1818 8.91666 11.3188 8.87511 11.4353 8.79728C11.5518 8.71945 11.6426 8.60882 11.6962 8.47939C11.7498 8.34996 11.7638 8.20754 11.7365 8.07013C11.7091 7.93273 11.6417 7.80652 11.5426 7.70746C11.4436 7.60839 11.3173 7.54093 11.1799 7.5136C11.0425 7.48627 10.9001 7.5003 10.7707 7.55391C10.6412 7.60752 10.5306 7.69831 10.4528 7.81479C10.375 7.93128 10.3334 8.06823 10.3334 8.20832C10.3334 8.39618 10.408 8.57635 10.5409 8.70919C10.6737 8.84203 10.8539 8.91666 11.0417 8.91666ZM7.50008 11.75C7.64018 11.75 7.77713 11.7084 7.89361 11.6306C8.0101 11.5528 8.10088 11.4422 8.1545 11.3127C8.20811 11.1833 8.22214 11.0409 8.1948 10.9035C8.16747 10.7661 8.10001 10.6399 8.00095 10.5408C7.90189 10.4417 7.77567 10.3743 7.63827 10.3469C7.50087 10.3196 7.35844 10.3336 7.22901 10.3872C7.09958 10.4409 6.98896 10.5316 6.91112 10.6481C6.83329 10.7646 6.79175 10.9016 6.79175 11.0417C6.79175 11.2295 6.86638 11.4097 6.99921 11.5425C7.13205 11.6754 7.31222 11.75 7.50008 11.75ZM11.0417 11.75C11.1818 11.75 11.3188 11.7084 11.4353 11.6306C11.5518 11.5528 11.6426 11.4422 11.6962 11.3127C11.7498 11.1833 11.7638 11.0409 11.7365 10.9035C11.7091 10.7661 11.6417 10.6399 11.5426 10.5408C11.4436 10.4417 11.3173 10.3743 11.1799 10.3469C11.0425 10.3196 10.9001 10.3336 10.7707 10.3872C10.6412 10.4409 10.5306 10.5316 10.4528 10.6481C10.375 10.7646 10.3334 10.9016 10.3334 11.0417C10.3334 11.2295 10.408 11.4097 10.5409 11.5425C10.6737 11.6754 10.8539 11.75 11.0417 11.75ZM3.95841 8.91666C4.09851 8.91666 4.23546 8.87511 4.35194 8.79728C4.46843 8.71945 4.55922 8.60882 4.61283 8.47939C4.66644 8.34996 4.68047 8.20754 4.65314 8.07013C4.62581 7.93273 4.55834 7.80652 4.45928 7.70746C4.36022 7.60839 4.23401 7.54093 4.0966 7.5136C3.9592 7.48627 3.81678 7.5003 3.68735 7.55391C3.55792 7.60752 3.44729 7.69831 3.36946 7.81479C3.29162 7.93128 3.25008 8.06823 3.25008 8.20832C3.25008 8.39618 3.32471 8.57635 3.45755 8.70919C3.59039 8.84203 3.77055 8.91666 3.95841 8.91666ZM12.4584 1.83332H11.7501V1.12499C11.7501 0.937128 11.6755 0.756961 11.5426 0.624122C11.4098 0.491284 11.2296 0.416656 11.0417 0.416656C10.8539 0.416656 10.6737 0.491284 10.5409 0.624122C10.408 0.756961 10.3334 0.937128 10.3334 1.12499V1.83332H4.66675V1.12499C4.66675 0.937128 4.59212 0.756961 4.45928 0.624122C4.32644 0.491284 4.14628 0.416656 3.95841 0.416656C3.77055 0.416656 3.59039 0.491284 3.45755 0.624122C3.32471 0.756961 3.25008 0.937128 3.25008 1.12499V1.83332H2.54175C1.97816 1.83332 1.43766 2.05721 1.03915 2.45572C0.640631 2.85424 0.416748 3.39474 0.416748 3.95832V12.4583C0.416748 13.0219 0.640631 13.5624 1.03915 13.9609C1.43766 14.3594 1.97816 14.5833 2.54175 14.5833H12.4584C13.022 14.5833 13.5625 14.3594 13.961 13.9609C14.3595 13.5624 14.5834 13.0219 14.5834 12.4583V3.95832C14.5834 3.39474 14.3595 2.85424 13.961 2.45572C13.5625 2.05721 13.022 1.83332 12.4584 1.83332ZM13.1667 12.4583C13.1667 12.6462 13.0921 12.8264 12.9593 12.9592C12.8264 13.092 12.6463 13.1667 12.4584 13.1667H2.54175C2.35389 13.1667 2.17372 13.092 2.04088 12.9592C1.90804 12.8264 1.83341 12.6462 1.83341 12.4583V6.08332H13.1667V12.4583ZM13.1667 4.66666H1.83341V3.95832C1.83341 3.77046 1.90804 3.59029 2.04088 3.45746C2.17372 3.32462 2.35389 3.24999 2.54175 3.24999H12.4584C12.6463 3.24999 12.8264 3.32462 12.9593 3.45746C13.0921 3.59029 13.1667 3.77046 13.1667 3.95832V4.66666ZM3.95841 11.75C4.09851 11.75 4.23546 11.7084 4.35194 11.6306C4.46843 11.5528 4.55922 11.4422 4.61283 11.3127C4.66644 11.1833 4.68047 11.0409 4.65314 10.9035C4.62581 10.7661 4.55834 10.6399 4.45928 10.5408C4.36022 10.4417 4.23401 10.3743 4.0966 10.3469C3.9592 10.3196 3.81678 10.3336 3.68735 10.3872C3.55792 10.4409 3.44729 10.5316 3.36946 10.6481C3.29162 10.7646 3.25008 10.9016 3.25008 11.0417C3.25008 11.2295 3.32471 11.4097 3.45755 11.5425C3.59039 11.6754 3.77055 11.75 3.95841 11.75Z" fill="#2C2C2E"/>
</svg>
