<svg width="24" height="24" viewBox="0 0 24 24" fill="none" xmlns="http://www.w3.org/2000/svg">
<path d="M13.6434 11.999L18.6552 6.99813C18.8747 6.77862 18.998 6.48091 18.998 6.17048C18.998 5.86005 18.8747 5.56233 18.6552 5.34282C18.4358 5.12332 18.1381 5 17.8277 5C17.5173 5 17.2196 5.12332 17.0002 5.34282L12 10.3554L6.99983 5.34282C6.78036 5.12332 6.48268 5 6.1723 5C5.86191 5 5.56424 5.12332 5.34476 5.34282C5.12529 5.56233 5.00199 5.86005 5.00199 6.17048C5.00199 6.48091 5.12529 6.77862 5.34476 6.99813L10.3566 11.999L5.34476 16.9999C5.23552 17.1083 5.14881 17.2372 5.08964 17.3792C5.03047 17.5213 5 17.6736 5 17.8275C5 17.9814 5.03047 18.1338 5.08964 18.2758C5.14881 18.4179 5.23552 18.5468 5.34476 18.6552C5.45312 18.7644 5.58203 18.8512 5.72406 18.9103C5.86609 18.9695 6.01843 19 6.1723 19C6.32616 19 6.47851 18.9695 6.62054 18.9103C6.76257 18.8512 6.89148 18.7644 6.99983 18.6552L12 13.6427L17.0002 18.6552C17.1085 18.7644 17.2374 18.8512 17.3795 18.9103C17.5215 18.9695 17.6738 19 17.8277 19C17.9816 19 18.1339 18.9695 18.2759 18.9103C18.418 18.8512 18.5469 18.7644 18.6552 18.6552C18.7645 18.5468 18.8512 18.4179 18.9104 18.2758C18.9695 18.1338 19 17.9814 19 17.8275C19 17.6736 18.9695 17.5213 18.9104 17.3792C18.8512 17.2372 18.7645 17.1083 18.6552 16.9999L13.6434 11.999Z" fill="#2541B2"/>
</svg>
