<svg width="14" height="20" viewBox="0 0 14 20" fill="none" xmlns="http://www.w3.org/2000/svg">
<path d="M12.8267 17.5017H11.9933V16.1125C11.9907 15.6356 11.9063 15.1627 11.7437 14.7144C11.7346 14.6899 11.725 14.6672 11.7138 14.6439C11.5788 14.2759 11.3924 13.929 11.16 13.6133L9.99341 12.0573C9.66973 11.6239 9.49437 11.0976 9.49333 10.5567V9.71516C9.49523 9.0526 9.75825 8.4175 10.2253 7.94758L10.773 7.39989C11.4094 6.7601 11.8182 5.92914 11.9366 5.03458C11.9371 5.02298 11.9433 5.01332 11.9433 5.00162L11.9409 4.99018C11.9699 4.81274 11.9874 4.63362 11.9933 4.45393V2.50166H12.8267C13.0477 2.50166 13.2596 2.41386 13.4159 2.25758C13.5722 2.1013 13.66 1.88934 13.66 1.66832C13.66 1.44731 13.5722 1.23535 13.4159 1.07907C13.2596 0.922789 13.0477 0.834991 12.8267 0.834991H1.16C0.938988 0.834991 0.727026 0.922789 0.570746 1.07907C0.414466 1.23535 0.326669 1.44731 0.326669 1.66832C0.326669 1.88934 0.414466 2.1013 0.570746 2.25758C0.727026 2.41386 0.938988 2.50166 1.16 2.50166H1.99334V4.45393C1.99925 4.63362 2.01675 4.81274 2.04573 4.99018L2.04338 5.00166C2.04338 5.01332 2.04958 5.02303 2.05004 5.03462C2.16851 5.92918 2.57729 6.76014 3.21363 7.39993L3.76132 7.94763C4.2284 8.41753 4.49141 9.05261 4.49333 9.71516V10.5567C4.49224 11.0976 4.31704 11.6237 3.99365 12.0573L2.82625 13.6133C2.59396 13.9291 2.40756 14.2762 2.27261 14.6443C2.26153 14.6673 2.25201 14.6898 2.24301 14.714C2.08039 15.1624 1.99594 15.6355 1.99333 16.1125V17.5017H1.15999C0.93898 17.5017 0.727018 17.5895 0.570738 17.7457C0.414457 17.902 0.32666 18.114 0.32666 18.335C0.32666 18.556 0.414457 18.768 0.570738 18.9242C0.727018 19.0805 0.93898 19.1683 1.15999 19.1683H12.8267C13.0477 19.1683 13.2596 19.0805 13.4159 18.9242C13.5722 18.768 13.66 18.556 13.66 18.335C13.66 18.114 13.5722 17.902 13.4159 17.7457C13.2596 17.5895 13.0477 17.5017 12.8267 17.5017V17.5017ZM3.65999 4.16832V2.50166H10.3267V4.16832H3.65999ZM4.39201 6.22155C4.27459 6.10358 4.16936 5.97408 4.07794 5.83499H9.90872C9.81729 5.97407 9.71206 6.10358 9.59464 6.22155L9.04695 6.76924C8.39693 7.41545 7.98011 8.25938 7.86206 9.16833H6.12456C6.00653 8.25935 5.58973 7.41539 4.93969 6.76916L4.39201 6.22155ZM5.32707 13.0567C5.80925 12.4106 6.09517 11.6393 6.15064 10.835H7.83602C7.89144 11.6393 8.17752 12.4107 8.65999 13.0567L9.49343 14.1683H4.49302L5.32707 13.0567ZM10.3267 17.5017H3.65999V16.1125C3.66231 16.0196 3.66989 15.927 3.68268 15.835H10.304C10.3168 15.927 10.3243 16.0196 10.3267 16.1125V17.5017Z" fill="#2C2C2E"/>
</svg>
