<svg width="22" height="22" viewBox="0 0 22 22" fill="none" xmlns="http://www.w3.org/2000/svg">
<path d="M9.94018 5.08019C10.2909 5.02642 10.6453 4.99967 11.0002 5.00019C14.1802 5.00019 17.1702 7.29018 18.9102 11.0002C18.6441 11.5648 18.3435 12.1125 18.0102 12.6402C17.9044 12.804 17.8487 12.9952 17.8502 13.1902C17.8524 13.4084 17.926 13.6199 18.0596 13.7925C18.1933 13.965 18.3798 14.089 18.5905 14.1457C18.8013 14.2024 19.0248 14.1885 19.227 14.1063C19.4291 14.024 19.5988 13.8779 19.7102 13.6902C20.1761 12.9581 20.5808 12.1888 20.9202 11.3902C20.9738 11.2654 21.0015 11.131 21.0015 10.9952C21.0015 10.8594 20.9738 10.725 20.9202 10.6002C18.9002 5.91019 15.1002 3.00019 11.0002 3.00019C10.5309 2.99782 10.0623 3.03798 9.60019 3.12019C9.46886 3.14251 9.34322 3.19048 9.23044 3.26136C9.11766 3.33224 9.01994 3.42464 8.94287 3.53329C8.8658 3.64193 8.81088 3.76469 8.78125 3.89456C8.75162 4.02443 8.74786 4.15886 8.77018 4.29019C8.79251 4.42151 8.84048 4.54715 8.91136 4.65993C8.98224 4.77271 9.07464 4.87043 9.18329 4.9475C9.29193 5.02457 9.41469 5.07949 9.54456 5.10912C9.67443 5.13875 9.80886 5.14251 9.94018 5.12019V5.08019ZM2.71019 1.29019C2.61695 1.19695 2.50626 1.12299 2.38443 1.07253C2.26261 1.02207 2.13204 0.996094 2.00019 0.996094C1.86833 0.996094 1.73776 1.02207 1.61594 1.07253C1.49411 1.12299 1.38342 1.19695 1.29019 1.29019C1.10188 1.47849 0.996094 1.73388 0.996094 2.00019C0.996094 2.26649 1.10188 2.52188 1.29019 2.71019L4.39019 5.80019C2.97576 7.16171 1.85004 8.79417 1.08019 10.6002C1.02512 10.7264 0.996701 10.8625 0.996701 11.0002C0.996701 11.1378 1.02512 11.274 1.08019 11.4002C3.10019 16.0902 6.90019 19.0002 11.0002 19.0002C12.7973 18.9878 14.552 18.4527 16.0502 17.4602L19.2902 20.7102C19.3831 20.8039 19.4937 20.8783 19.6156 20.9291C19.7375 20.9798 19.8682 21.006 20.0002 21.006C20.1322 21.006 20.2629 20.9798 20.3848 20.9291C20.5066 20.8783 20.6172 20.8039 20.7102 20.7102C20.8039 20.6172 20.8783 20.5066 20.9291 20.3848C20.9798 20.2629 21.006 20.1322 21.006 20.0002C21.006 19.8682 20.9798 19.7375 20.9291 19.6156C20.8783 19.4937 20.8039 19.3831 20.7102 19.2902L2.71019 1.29019ZM9.07018 10.4802L11.5202 12.9302C11.3512 12.9787 11.176 13.0022 11.0002 13.0002C10.4698 13.0002 9.96104 12.7895 9.58597 12.4144C9.2109 12.0393 9.00019 11.5306 9.00019 11.0002C8.99814 10.8244 9.02172 10.6492 9.07018 10.4802ZM11.0002 17.0002C7.82018 17.0002 4.83019 14.7102 3.10019 11.0002C3.74627 9.57393 4.66326 8.28676 5.80019 7.21019L7.57019 9.00019C7.15443 9.75898 6.99592 10.6321 7.11844 11.4886C7.24096 12.3452 7.6379 13.1388 8.24971 13.7507C8.86152 14.3625 9.65522 14.7594 10.5117 14.8819C11.3682 15.0044 12.2414 14.8459 13.0002 14.4302L14.5902 16.0002C13.5013 16.6411 12.2636 16.9858 11.0002 17.0002Z" fill="#2541B2"/>
</svg>
