<svg width="32" height="32" viewBox="0 0 32 32" fill="none" xmlns="http://www.w3.org/2000/svg">
<path d="M14.2047 29.3332L14.2047 29.3332L14.2125 29.3399C14.7106 29.766 15.3445 30.0001 16 30.0001C16.644 30.0001 17.2672 29.7741 17.7612 29.3621C18.2475 28.9747 20.5291 26.9501 22.7396 24.1989C25.0068 21.3772 27.5 17.4295 27.5 13.5C27.5 10.45 26.2884 7.52494 24.1317 5.36827C21.9751 3.2116 19.05 2 16 2C12.95 2 10.0249 3.2116 7.86827 5.36827C5.7116 7.52494 4.5 10.45 4.5 13.5C4.5 17.4259 7.00387 21.368 9.27292 24.1854C11.6003 27.0752 13.9733 29.1327 14.2026 29.3314C14.2028 29.3315 14.2029 29.3316 14.2031 29.3318L14.2047 29.3332ZM14.0555 10.5899C14.6311 10.2053 15.3078 10 16 10C16.9283 10 17.8185 10.3687 18.4749 11.0251C19.1313 11.6815 19.5 12.5717 19.5 13.5C19.5 14.1922 19.2947 14.8689 18.9101 15.4445C18.5256 16.0201 17.9789 16.4687 17.3394 16.7336C16.6999 16.9985 15.9961 17.0678 15.3172 16.9327C14.6383 16.7977 14.0146 16.4644 13.5251 15.9749C13.0356 15.4854 12.7023 14.8617 12.5673 14.1828C12.4322 13.5039 12.5015 12.8001 12.7664 12.1606C13.0313 11.5211 13.4799 10.9744 14.0555 10.5899Z" fill="#FF2F2F" stroke="white" stroke-width="3"/>
</svg>
