<svg width="20" height="21" viewBox="0 0 20 21" fill="none" xmlns="http://www.w3.org/2000/svg">
<path d="M19.15 1.86001C18.768 1.47057 18.2835 1.19723 17.7526 1.07158C17.2217 0.945941 16.6661 0.973131 16.15 1.15001L2.00005 5.88001C1.42936 6.06681 0.930738 6.42616 0.573002 6.90845C0.215267 7.39073 0.0160652 7.97218 0.00289517 8.57251C-0.0102749 9.17285 0.163236 9.76247 0.499477 10.26C0.835717 10.7575 1.31811 11.1384 1.88005 11.35L7.12005 13.35C7.23937 13.3956 7.34801 13.4654 7.43919 13.5548C7.53038 13.6443 7.60216 13.7516 7.65005 13.87L9.65005 19.12C9.85363 19.674 10.2231 20.1518 10.708 20.4882C11.193 20.8246 11.7698 21.0033 12.36 21H12.43C13.0311 20.9891 13.6136 20.7903 14.096 20.4317C14.5784 20.073 14.9365 19.5724 15.1201 19L19.85 4.83001C20.0221 4.31895 20.0477 3.76995 19.924 3.2451C19.8003 2.72024 19.5322 2.24046 19.15 1.86001Z" fill="#2541B2"/>
</svg>
