<svg width="285" height="193" viewBox="0 0 285 193" fill="none" xmlns="http://www.w3.org/2000/svg">
<g clip-path="url(#clip0_1507_5197)">
<path d="M285 187.833H0V193.111H285V187.833Z" fill="#FDC500"/>
<path d="M26.9007 151.008H16.5682V177.278H10.3324V151.008H0V145.611H26.9007V151.008ZM33.1884 177.278V145.611H47.4808C48.9677 145.611 50.3332 145.908 51.5774 146.503C52.8518 147.098 53.9443 147.901 54.8546 148.912C55.7953 149.923 56.5084 151.052 56.9939 152.301C57.5098 153.55 57.7677 154.829 57.7677 156.137C57.7677 157.475 57.5249 158.768 57.0394 160.017C56.5843 161.236 55.9167 162.307 55.0367 163.228C54.1567 164.15 53.1249 164.864 51.9415 165.369L59.3153 177.278H52.3967L45.7512 166.663H39.4698V177.278H33.1884ZM39.4698 161.266H47.3443C48.1332 161.266 48.8312 161.043 49.438 160.597C50.0449 160.121 50.5305 159.497 50.8946 158.724C51.2587 157.951 51.4408 157.088 51.4408 156.137C51.4408 155.126 51.2284 154.249 50.8036 153.505C50.3787 152.732 49.8325 152.123 49.1649 151.677C48.5277 151.231 47.8298 151.008 47.0712 151.008H39.4698V161.266ZM74.5199 145.611H80.8923L92.7723 177.278H86.3088L83.3047 169.383H72.0164L69.0578 177.278H62.5943L74.5199 145.611ZM82.1668 165.057L77.7061 151.989L73.0633 165.057H82.1668ZM99.2929 145.611L108.032 169.963L116.68 145.611H123.28L111.036 177.278H104.983L92.6929 145.611H99.2929ZM151.446 171.881V177.278H129.006V145.611H151.036V151.008H135.287V158.635H148.897V163.63H135.287V171.881H151.446ZM158.618 177.278V145.611H164.9V171.881H181.377V177.278H158.618ZM196.261 145.611H202.634L214.514 177.278H208.05L205.046 169.383H193.758L190.799 177.278H184.336L196.261 145.611ZM203.908 165.057L199.447 151.989L194.805 165.057H203.908ZM226.615 156.94V177.278H220.334V145.611H225.341L242.045 166.484V145.656H248.327V177.278H243.092L226.615 156.94ZM257.326 177.278V145.611H269.069C272.589 145.611 275.532 146.325 277.899 147.752C280.266 149.149 282.041 151.052 283.225 153.461C284.408 155.84 285 158.486 285 161.4C285 164.611 284.348 167.406 283.043 169.785C281.738 172.164 279.887 174.007 277.49 175.315C275.123 176.624 272.316 177.278 269.069 177.278H257.326ZM278.673 161.4C278.673 159.348 278.294 157.549 277.535 156.003C276.777 154.427 275.684 153.208 274.258 152.346C272.832 151.454 271.102 151.008 269.069 151.008H263.607V171.881H269.069C271.132 171.881 272.877 171.435 274.303 170.543C275.73 169.621 276.807 168.372 277.535 166.797C278.294 165.191 278.673 163.392 278.673 161.4Z" fill="#2541B2"/>
<path d="M88.7449 70.7076C88.7449 51.4465 99.4022 34.6805 115.128 26.0122C117.381 24.7703 128.434 3.93109 128.434 3.93109C128.434 3.93109 134.18 7.41525 136.778 8.01162C137.636 8.20852 140.16 12.8403 141.002 13.0613C144.305 13.929 146.293 13.8265 146.293 13.8265C146.293 13.8265 152.209 21.2255 155.057 22.1362C165.374 25.4344 174.159 31.0397 179.791 39.9034C179.853 40.0016 189.568 39.3963 189.568 39.3963C189.568 39.3963 196.019 44.7898 196.25 52.212C196.453 58.7168 190.439 67.08 190.439 70.7076C190.439 98.8587 167.674 121.68 139.592 121.68C111.51 121.68 88.7449 98.8587 88.7449 70.7076Z" stroke="#2541B2" stroke-width="6.33333" stroke-miterlimit="10" stroke-linejoin="round"/>
<path d="M160.558 117.113C160.558 117.113 163.533 109.925 163.614 103.841C163.694 97.7573 160.878 92.7766 160.878 92.7766C160.878 92.7766 151.281 98.2957 145.172 98.6576C139.063 99.0194 136.441 94.224 136.441 94.224C136.441 94.224 148.164 91.5661 150.589 88.3009C153.013 85.0356 149.693 82.8029 145.617 81.1631C141.541 79.5233 137.052 86.6339 130.67 84.4985C124.288 82.3631 120.613 72.6215 120.613 72.6215L130.794 62.434C130.794 62.434 128.801 53.9324 134.891 47.3828C140.981 40.8332 145.093 38.696 155.449 37.0546C165.803 35.4131 176.31 40.8167 176.31 40.8167L189.568 39.3959C189.568 39.3959 196.069 45.092 196.25 52.2116C196.431 59.3314 190.438 70.7071 190.438 70.7071" stroke="#2541B2" stroke-width="6.33333" stroke-miterlimit="10" stroke-linejoin="round"/>
</g>
<defs>
<clipPath id="clip0_1507_5197">
<rect width="285" height="193" fill="white"/>
</clipPath>
</defs>
</svg>
