<svg width="20" height="19" viewBox="0 0 20 19" fill="none" xmlns="http://www.w3.org/2000/svg">
<path d="M19.32 2.04999L13.32 0.0499937H13.25C13.2035 0.0453153 13.1566 0.0453153 13.11 0.0499937H12.88H12.75H12.68L7 1.99999L1.32 0.0499937C1.16962 0.000405241 1.00961 -0.012761 0.853139 0.0115785C0.696671 0.035918 0.548219 0.0970674 0.420003 0.189994C0.290762 0.28201 0.185268 0.403457 0.112238 0.544301C0.039208 0.685145 0.000736954 0.841344 3.33354e-06 0.999994V15C-0.000537828 15.2096 0.0648223 15.4141 0.186845 15.5846C0.308868 15.7551 0.481382 15.8829 0.680003 15.95L6.68 17.95C6.88145 18.0157 7.09856 18.0157 7.3 17.95L13 16.05L18.68 18C18.7862 18.0144 18.8938 18.0144 19 18C19.2091 18.0029 19.4132 17.9361 19.58 17.81C19.7092 17.718 19.8147 17.5965 19.8878 17.4557C19.9608 17.3148 19.9993 17.1586 20 17V2.99999C20.0005 2.79035 19.9352 2.58584 19.8132 2.41536C19.6911 2.24489 19.5186 2.11708 19.32 2.04999ZM12 14.28L8 15.61V3.71999L12 2.38999V14.28Z" fill="#2541B2"/>
</svg>
