<svg width="24" height="24" viewBox="0 0 24 24" fill="none" xmlns="http://www.w3.org/2000/svg">
<path d="M20.16 5.00004C19.1 3.93725 17.6948 3.28858 16.1984 3.17121C14.7019 3.05384 13.2128 3.47551 12 4.36004C10.7277 3.41368 9.14402 2.98455 7.56795 3.15908C5.99188 3.33361 4.54047 4.09882 3.506 5.30063C2.47154 6.50244 1.93085 8.05156 1.99283 9.63606C2.05481 11.2206 2.71485 12.7227 3.84003 13.84L10.05 20.06C10.57 20.5718 11.2704 20.8587 12 20.8587C12.7296 20.8587 13.43 20.5718 13.95 20.06L20.16 13.84C21.3276 12.6653 21.983 11.0763 21.983 9.42004C21.983 7.76377 21.3276 6.17478 20.16 5.00004Z" fill="#2541B2"/>
</svg>
