<svg width="20" height="22" viewBox="0 0 20 22" fill="none" xmlns="http://www.w3.org/2000/svg">
<path d="M15.7572 8.68394C15.406 9.88092 14.6904 10.9387 13.71 11.71C15.3969 12.3795 16.8698 13.4954 17.9708 14.9382C19.0719 16.381 19.7595 18.0962 19.96 19.9C19.9881 20.1624 19.9114 20.4252 19.7466 20.6313C19.5817 20.8373 19.3421 20.9698 19.08 21H18.97C18.97 21 1.22521 21.0292 0.959997 21C0.69478 20.9708 0.452016 20.8375 0.285108 20.6293C0.202464 20.5263 0.140931 20.4079 0.104022 20.2811C0.0671132 20.1542 0.0555513 20.0213 0.0699967 19.89C0.26956 18.0913 0.953495 16.3805 2.04889 14.9399C3.14428 13.4994 4.61007 12.383 6.29 11.71C5.3096 10.9387 4.59401 9.88092 4.24276 8.68394C3.89151 7.48697 3.92208 6.21027 4.33021 5.03147C4.73834 3.85267 5.50374 2.83039 6.51993 2.10686C7.53611 1.38332 8.75255 0.994507 10 0.994507C11.2474 0.994507 12.4639 1.38332 13.4801 2.10686C14.4963 2.83039 15.2617 3.85267 15.6698 5.03147C16.0779 6.21027 16.1085 7.48697 15.7572 8.68394Z" fill="#2541B2"/>
</svg>
