<svg width="21" height="12" viewBox="0 0 21 12" fill="none" xmlns="http://www.w3.org/2000/svg">
<path d="M4.71 0.29C4.6149 0.198959 4.50275 0.127594 4.38 0.0799999C4.13654 -0.0200181 3.86346 -0.0200181 3.62 0.0799999C3.49725 0.127594 3.38511 0.198959 3.29 0.29L1.29 2.29C1.1017 2.4783 0.995911 2.7337 0.995911 3C0.995911 3.2663 1.1017 3.5217 1.29 3.71C1.47831 3.8983 1.7337 4.00409 2 4.00409C2.2663 4.00409 2.5217 3.8983 2.71 3.71L3 3.41V11C3 11.2652 3.10536 11.5196 3.2929 11.7071C3.48043 11.8946 3.73479 12 4 12C4.26522 12 4.51957 11.8946 4.70711 11.7071C4.89465 11.5196 5 11.2652 5 11V3.41L5.29 3.71C5.38297 3.80373 5.49357 3.87812 5.61543 3.92889C5.73728 3.97966 5.86799 4.0058 6 4.0058C6.13201 4.0058 6.26272 3.97966 6.38458 3.92889C6.50644 3.87812 6.61704 3.80373 6.71 3.71C6.80373 3.61704 6.87812 3.50644 6.92889 3.38458C6.97966 3.26272 7.0058 3.13201 7.0058 3C7.0058 2.86799 6.97966 2.73728 6.92889 2.61542C6.87812 2.49356 6.80373 2.38296 6.71 2.29L4.71 0.29ZM10 2H20C20.2652 2 20.5196 1.89464 20.7071 1.70711C20.8946 1.51957 21 1.26522 21 1C21 0.734784 20.8946 0.48043 20.7071 0.292893C20.5196 0.105357 20.2652 0 20 0H10C9.73479 0 9.48043 0.105357 9.2929 0.292893C9.10536 0.48043 9 0.734784 9 1C9 1.26522 9.10536 1.51957 9.2929 1.70711C9.48043 1.89464 9.73479 2 10 2ZM20 10H10C9.73479 10 9.48043 10.1054 9.2929 10.2929C9.10536 10.4804 9 10.7348 9 11C9 11.2652 9.10536 11.5196 9.2929 11.7071C9.48043 11.8946 9.73479 12 10 12H20C20.2652 12 20.5196 11.8946 20.7071 11.7071C20.8946 11.5196 21 11.2652 21 11C21 10.7348 20.8946 10.4804 20.7071 10.2929C20.5196 10.1054 20.2652 10 20 10ZM20 5H10C9.73479 5 9.48043 5.10536 9.2929 5.29289C9.10536 5.48043 9 5.73478 9 6C9 6.26522 9.10536 6.51957 9.2929 6.70711C9.48043 6.89464 9.73479 7 10 7H20C20.2652 7 20.5196 6.89464 20.7071 6.70711C20.8946 6.51957 21 6.26522 21 6C21 5.73478 20.8946 5.48043 20.7071 5.29289C20.5196 5.10536 20.2652 5 20 5Z" fill="#2541B2"/>
</svg>
