<svg width="15" height="15" viewBox="0 0 15 15" fill="none" xmlns="http://www.w3.org/2000/svg">
<path d="M9.6946 7.94892L8.20842 7.09117V3.95832C8.20842 3.77046 8.13379 3.59029 8.00095 3.45746C7.86811 3.32462 7.68795 3.24999 7.50009 3.24999C7.31222 3.24999 7.13206 3.32462 6.99922 3.45746C6.86638 3.59029 6.79175 3.77046 6.79175 3.95832V7.49999C6.79172 7.62435 6.82443 7.74653 6.8866 7.85424C6.94877 7.96195 7.03821 8.05138 7.14592 8.11355L8.98627 9.17605C9.06684 9.22262 9.15581 9.25286 9.24807 9.26503C9.34034 9.2772 9.4341 9.27108 9.524 9.24701C9.61389 9.22293 9.69817 9.18139 9.772 9.12473C9.84584 9.06808 9.90779 8.99744 9.95431 8.91684C10.0008 8.83624 10.031 8.74726 10.0432 8.65499C10.0553 8.56272 10.0491 8.46896 10.025 8.37907C10.0009 8.28919 9.95928 8.20494 9.90259 8.13113C9.8459 8.05732 9.77523 7.99541 9.6946 7.94892ZM7.50009 0.416656C6.09913 0.416656 4.72964 0.832087 3.5648 1.61041C2.39995 2.38874 1.49206 3.49501 0.955938 4.78932C0.419817 6.08362 0.279544 7.50785 0.552856 8.88188C0.826168 10.2559 1.50079 11.518 2.49141 12.5087C3.48203 13.4993 4.74416 14.1739 6.1182 14.4472C7.49223 14.7205 8.91645 14.5803 10.2108 14.0441C11.5051 13.508 12.6113 12.6001 13.3897 11.4353C14.168 10.2704 14.5834 8.90094 14.5834 7.49999C14.5813 5.62201 13.8344 3.82155 12.5065 2.49362C11.1785 1.16569 9.37806 0.418745 7.50009 0.416656ZM7.50009 13.1667C6.37932 13.1667 5.28373 12.8343 4.35185 12.2116C3.41997 11.589 2.69366 10.704 2.26477 9.66853C1.83587 8.63308 1.72365 7.4937 1.9423 6.39448C2.16095 5.29525 2.70065 4.28555 3.49315 3.49305C4.28564 2.70055 5.29535 2.16086 6.39457 1.94221C7.4938 1.72356 8.63318 1.83578 9.66862 2.26467C10.7041 2.69357 11.5891 3.41988 12.2117 4.35176C12.8344 5.28364 13.1668 6.37923 13.1668 7.49999C13.165 9.00236 12.5675 10.4427 11.5051 11.505C10.4428 12.5674 9.00245 13.1649 7.50009 13.1667Z" fill="#2C2C2E"/>
</svg>
